<svg xmlns="http://www.w3.org/2000/svg" viewBox="0 0 600 900" width="600" height="900">
<line x1="334.80826633788956" y1="556.3415037856321" x2="411.5232170259781" y2="713.6304618879863" stroke="#15151A" stroke-width="30" stroke-linecap="round"/>
<line x1="411.5232170259781" y1="713.6304618879863" x2="435.87850969398954" y2="886.9273739177611" stroke="#15151A" stroke-width="26" stroke-linecap="round"/>
<line x1="265.19173366211044" y1="563.6584962143678" x2="188.4767829740219" y2="720.9474543167221" stroke="#15151A" stroke-width="30" stroke-linecap="round"/>
<line x1="188.4767829740219" y1="720.9474543167221" x2="176.26940006879997" y2="895.5211631121913" stroke="#15151A" stroke-width="26" stroke-linecap="round"/>
<line x1="324.24352811110924" y1="336.2400810137663" x2="300.9978005010165" y2="443.7558293852369" stroke="#15151A" stroke-width="22" stroke-linecap="round"/>
<line x1="300.9978005010165" y1="443.7558293852369" x2="247.7101728939435" y2="528.3751459979933" stroke="#15151A" stroke-width="18" stroke-linecap="round"/>
<line x1="229.76394805112324" y1="346.1702850241934" x2="274.8554817736962" y2="446.50349780314343" stroke="#15151A" stroke-width="22" stroke-linecap="round"/>
<line x1="274.8554817736962" y1="446.50349780314343" x2="344.57199205915265" y2="518.1945585681917" stroke="#15151A" stroke-width="18" stroke-linecap="round"/>
<line x1="334.80826633788956" y1="556.3415037856321" x2="265.19173366211044" y2="563.6584962143678" stroke="#15151A" stroke-width="46" stroke-linecap="round"/>
<line x1="277.00373808111624" y1="341.2051830189799" x2="300" y2="560" stroke="#15151A" stroke-width="46" stroke-linecap="round"/>
<line x1="324.24352811110924" y1="336.2400810137663" x2="229.76394805112324" y2="346.1702850241934" stroke="#15151A" stroke-width="41.4" stroke-linecap="round"/>
<circle cx="247.7101728939435" cy="528.3751459979933" r="11" fill="#15151A"/>
<circle cx="344.57199205915265" cy="518.1945585681917" r="11" fill="#15151A"/>
<circle cx="435.87850969398954" cy="886.9273739177611" r="13" fill="#15151A"/>
<circle cx="176.26940006879997" cy="895.5211631121913" r="13" fill="#15151A"/>
<circle cx="274.11479329650575" cy="286.0808327005274" r="42" fill="#15151A"/>
</svg>
