<svg xmlns="http://www.w3.org/2000/svg" viewBox="0 0 600 900" width="600" height="900">
<line x1="334.91474175909383" y1="562.4414765810444" x2="377.25107348903566" y2="732.2432286793438" stroke="#15151A" stroke-width="30" stroke-linecap="round"/>
<line x1="377.25107348903566" y1="732.2432286793438" x2="431.32904750465144" y2="898.6781190309957" stroke="#15151A" stroke-width="26" stroke-linecap="round"/>
<line x1="265.08525824090617" y1="557.5585234189556" x2="222.7489265109643" y2="727.360275517255" stroke="#15151A" stroke-width="30" stroke-linecap="round"/>
<line x1="222.7489265109643" y1="727.360275517255" x2="168.6709524953485" y2="893.7951658689069" stroke="#15151A" stroke-width="26" stroke-linecap="round"/>
<line x1="362.7307166110492" y1="343.8493414456846" x2="393.0508257509191" y2="449.5881279988997" stroke="#15151A" stroke-width="22" stroke-linecap="round"/>
<line x1="393.0508257509191" y1="449.5881279988997" x2="403.5036720776844" y2="549.040317535727" stroke="#15151A" stroke-width="18" stroke-linecap="round"/>
<line x1="267.9621318363659" y1="337.2224764399927" x2="184.944078011861" y2="409.38896962894853" stroke="#15151A" stroke-width="22" stroke-linecap="round"/>
<line x1="184.944078011861" y1="409.38896962894853" x2="119.33817511281026" y2="333.9180116066713" stroke="#15151A" stroke-width="18" stroke-linecap="round"/>
<line x1="334.91474175909383" y1="562.4414765810444" x2="265.08525824090617" y2="557.5585234189556" stroke="#15151A" stroke-width="46" stroke-linecap="round"/>
<line x1="315.3464242237076" y1="340.53590894283866" x2="300" y2="560" stroke="#15151A" stroke-width="46" stroke-linecap="round"/>
<line x1="362.7307166110492" y1="343.8493414456846" x2="267.9621318363659" y2="337.2224764399927" stroke="#15151A" stroke-width="41.4" stroke-linecap="round"/>
<circle cx="403.5036720776844" cy="549.040317535727" r="11" fill="#15151A"/>
<circle cx="119.33817511281026" cy="333.9180116066713" r="11" fill="#15151A"/>
<circle cx="431.32904750465144" cy="898.6781190309957" r="13" fill="#15151A"/>
<circle cx="168.6709524953485" cy="893.7951658689069" r="13" fill="#15151A"/>
<circle cx="319.1969815743833" cy="285.4703733684964" r="42" fill="#15151A"/>
</svg>
